<svg fill="#000000" height="800px" width="800px" version="1.1" id="Capa_1" xmlns="http://www.w3.org/2000/svg" xmlns:xlink="http://www.w3.org/1999/xlink" 
	 viewBox="0 0 418.262 418.262" xml:space="preserve">
<path d="M407.262,9.68H11c-6.065,0-11,4.935-11,11v376.902c0,6.065,4.935,11,11,11h1.525c6.066,0,11-4.935,11-11v-91.343h15.602
	v83.209c0,4.877,3.811,8.697,8.676,8.697c0.232,0,0.468-0.01,0.707-0.028l126.974-10.038c4.818-0.382,8.593-4.467,8.593-9.3V85.53
	c0-4.639-3.589-8.839-8.17-9.563L48.859,55.879c-0.461-0.073-0.929-0.11-1.39-0.11c-4.678,0-8.343,3.701-8.343,8.425v41.321H23.525
	V34.371c0-0.542,0.458-1,1-1h369.211c0.542,0,1,0.458,1,1v71.144h-15.602V64.193c0-4.724-3.665-8.425-8.343-8.425
	c-0.461,0-0.929,0.037-1.39,0.11L242.355,75.967c-4.581,0.725-8.17,4.925-8.17,9.563v293.249c0,4.833,3.774,8.918,8.593,9.3
	l126.976,10.038c0.237,0.019,0.473,0.028,0.705,0.028h0.001c2.329,0,4.511-0.897,6.141-2.527c1.634-1.634,2.534-3.825,2.534-6.17
	v-83.209h15.602v91.343c0,6.065,4.935,11,11,11h1.525c6.065,0,11-4.935,11-11V20.68C418.262,14.614,413.327,9.68,407.262,9.68z
	 M158.816,202.229c0-2.762,2.238-5,5-5c2.762,0,5,2.238,5,5v44.657c0,2.762-2.238,5-5,5c-2.762,0-5-2.238-5-5V202.229z
	 M39.127,136.211v139.333H23.525V136.211H39.127z M260.566,246.886c0,2.762-2.238,5-5,5c-2.762,0-5-2.238-5-5v-44.657
	c0-2.762,2.238-5,5-5c2.762,0,5,2.238,5,5V246.886z M394.736,275.544h-15.602V136.211h15.602V275.544z"/>
</svg>