<svg xmlns="http://www.w3.org/2000/svg" version="1.1" xmlns:xlink="http://www.w3.org/1999/xlink" xmlns:svgjs="http://svgjs.dev/svgjs" width="1000" height="1000" viewBox="0 0 1000 1000"><rect width="1000" height="1000" fill="#ffffff"></rect><g transform="matrix(0.7,0,0,0.7,149.57575757575756,282.1265587044535)"><svg viewBox="0 0 396 247" data-background-color="#ffffff" preserveAspectRatio="xMidYMid meet" height="623" width="1000" xmlns="http://www.w3.org/2000/svg" xmlns:xlink="http://www.w3.org/1999/xlink"><g id="tight-bounds" transform="matrix(1,0,0,1,0.2400000000000091,-0.09999999999999432)"><svg viewBox="0 0 395.52 247.2" height="247.2" width="395.52"><g><svg></svg></g><g><svg viewBox="0 0 395.52 247.2" height="247.2" width="395.52"><g transform="matrix(1,0,0,1,39.55199999999999,110.70675273842558)"><svg viewBox="0 0 316.416 25.786494523148825" height="25.786494523148825" width="316.416"><g><svg viewBox="0 0 316.416 25.786494523148825" height="25.786494523148825" width="316.416"><g><svg viewBox="0 0 316.416 25.786494523148825" height="25.786494523148825" width="316.416"><g id="textblocktransform"><svg viewBox="0 0 316.416 25.786494523148825" height="25.786494523148825" width="316.416" id="textblock"><g><svg viewBox="0 0 316.416 25.786494523148825" height="25.786494523148825" width="316.416"><g transform="matrix(1,0,0,1,0,0)"><svg width="316.416" viewBox="4.31 -31.61 393.46999999999997 32.07" height="25.786494523148825" data-palette-color="#ed1703"><path d="M13.97-13.68L8.16-13.68 8.16-1.9Q8.16-0.52 6.9-0.11L6.9-0.11Q6.55 0 6.03 0 5.52 0 4.91-0.46 4.31-0.92 4.31-1.9L4.31-1.9 4.31-29.43Q4.31-30.57 5.52-31.21L5.52-31.21Q5.86-31.38 6.32-31.38L6.32-31.38 14.14-31.38Q23.91-31.38 26.03-25.4L26.03-25.4Q26.55-24.02 26.55-22.47 26.55-20.92 26.09-19.6 25.63-18.28 24.77-17.24 23.91-16.21 22.7-15.57 21.49-14.94 20.11-14.48L20.11-14.48Q17.41-13.68 13.97-13.68L13.97-13.68ZM8.16-16.78L14.66-16.78Q18.39-16.78 20.17-18.05L20.17-18.05Q22.53-19.54 22.53-22.59L22.53-22.59Q22.53-25.52 20.17-27.01L20.17-27.01Q18.39-28.16 14.71-28.28L14.71-28.28 8.16-28.28 8.16-16.78ZM35.6-20.2Q35.05-17.82 35.05-15.55 35.05-13.28 35.6-10.86 36.15-8.45 37.47-6.64 38.79-4.83 40.74-3.74 42.7-2.64 45.51-2.64 48.33-2.64 50.34-3.74 52.35-4.83 53.62-6.64 54.88-8.45 55.49-10.86 56.09-13.28 56.09-15.55 56.09-17.82 55.49-20.2 54.88-22.59 53.62-24.4 52.35-26.21 50.34-27.3 48.33-28.39 45.51-28.39 42.7-28.39 40.74-27.3 38.79-26.21 37.47-24.4 36.15-22.59 35.6-20.2ZM30.74-15.63L30.74-15.63Q30.74-18.97 31.72-21.95 32.7-24.94 34.65-27.07L34.65-27.07Q38.56-31.55 45.46-31.61L45.46-31.61Q52.47-31.61 56.43-27.07L56.43-27.07Q58.33-24.94 59.28-21.95 60.23-18.97 60.23-15.63L60.23-15.63Q60.23-12.24 59.28-9.17 58.33-6.09 56.43-4.02L56.43-4.02Q52.47 0.46 45.46 0.46L45.46 0.46Q38.5 0.46 34.65-4.02L34.65-4.02Q32.7-6.21 31.72-9.22 30.74-12.24 30.74-15.63ZM76.95-13.68L71.14-13.68 71.14-1.9Q71.14-0.52 69.88-0.11L69.88-0.11Q69.54 0 69.02 0 68.5 0 67.9-0.46 67.29-0.92 67.29-1.9L67.29-1.9 67.29-29.43Q67.29-30.57 68.5-31.21L68.5-31.21Q68.85-31.38 69.31-31.38L69.31-31.38 77.12-31.38Q86.89-31.38 89.02-25.4L89.02-25.4Q89.54-24.02 89.54-22.47 89.54-20.92 89.08-19.6 88.62-18.28 87.75-17.24 86.89-16.21 85.68-15.57 84.48-14.94 83.1-14.48L83.1-14.48Q80.4-13.68 76.95-13.68L76.95-13.68ZM71.14-16.78L77.64-16.78Q81.37-16.78 83.16-18.05L83.16-18.05Q85.51-19.54 85.51-22.59L85.51-22.59Q85.51-25.52 83.16-27.01L83.16-27.01Q81.37-28.16 77.7-28.28L77.7-28.28 71.14-28.28 71.14-16.78ZM93.56-15.52L93.56-15.52Q93.56-18.51 94.42-21.55 95.28-24.6 97.06-26.78L97.06-26.78Q100.85-31.61 107.87-31.61L107.87-31.61Q111.89-31.61 115.68-29.83L115.68-29.83Q116.66-29.43 116.66-28.51L116.66-28.51Q116.66-26.78 115.28-26.72L115.28-26.72Q114.99-26.72 114.76-26.78L114.76-26.78Q110.8-28.16 108.47-28.16 106.14-28.16 104.59-27.64 103.04-27.13 101.89-26.21 100.74-25.29 99.94-24.08 99.13-22.87 98.67-21.38L98.67-21.38Q97.69-18.62 97.69-15.52L97.69-15.52Q97.69-10.46 99.94-7.01L99.94-7.01Q102.58-2.93 108.1-2.93L108.1-2.93Q111.89-2.93 115.34-4.94L115.34-4.94Q115.8-5.06 116.23-5.06 116.66-5.06 117.03-4.66 117.41-4.25 117.41-3.62 117.41-2.99 116.95-2.44 116.49-1.9 115.71-1.47 114.94-1.03 113.99-0.69 113.04-0.34 112-0.11L112-0.11Q109.82 0.46 107.87 0.46L107.87 0.46Q100.8 0.46 97.06-4.31L97.06-4.31Q93.56-8.62 93.56-15.52ZM128.93-20.2Q128.38-17.82 128.38-15.55 128.38-13.28 128.93-10.86 129.47-8.45 130.79-6.64 132.12-4.83 134.07-3.74 136.02-2.64 138.84-2.64 141.66-2.64 143.67-3.74 145.68-4.83 146.94-6.64 148.21-8.45 148.81-10.86 149.42-13.28 149.42-15.55 149.42-17.82 148.81-20.2 148.21-22.59 146.94-24.4 145.68-26.21 143.67-27.3 141.66-28.39 138.84-28.39 136.02-28.39 134.07-27.3 132.12-26.21 130.79-24.4 129.47-22.59 128.93-20.2ZM124.07-15.63L124.07-15.63Q124.07-18.97 125.05-21.95 126.02-24.94 127.98-27.07L127.98-27.07Q131.89-31.55 138.78-31.61L138.78-31.61Q145.79-31.61 149.76-27.07L149.76-27.07Q151.66-24.94 152.6-21.95 153.55-18.97 153.55-15.63L153.55-15.63Q153.55-12.24 152.6-9.17 151.66-6.09 149.76-4.02L149.76-4.02Q145.79 0.46 138.78 0.46L138.78 0.46Q131.83 0.46 127.98-4.02L127.98-4.02Q126.02-6.21 125.05-9.22 124.07-12.24 124.07-15.63ZM160.68-1.9L160.68-29.43Q160.68-30.57 161.94-31.21L161.94-31.21Q162.29-31.38 162.69-31.38L162.69-31.38 172.06-31.38Q179.64-31.38 182.29-27.36L182.29-27.36Q183.21-25.69 183.21-23.13 183.21-20.57 181.54-18.79 179.87-17.01 176.77-16.38L176.77-16.38 176.77-16.21Q179.76-15.69 181.02-13.97L181.02-13.97Q182-12.53 182.26-10.11 182.52-7.7 182.69-6.32L182.69-6.32Q182.86-4.31 183.03-1.9L183.03-1.9Q183.03-0.92 182.43-0.46 181.83 0 181.08 0 180.33 0 179.76-0.43 179.18-0.86 179.07-1.72L179.07-1.72Q178.84-4.37 178.67-6.41 178.49-8.45 178.26-9.86 178.03-11.26 177.63-12.18 177.23-13.1 176.54-13.62L176.54-13.62Q175.39-14.48 172-14.6L172-14.6 164.59-14.6 164.59-1.9Q164.59-0.52 163.38-0.11L163.38-0.11Q163.03 0 162.49 0 161.94 0 161.31-0.46 160.68-0.92 160.68-1.9L160.68-1.9ZM164.59-17.59L170.33-17.59Q175.79-17.59 177.69-19.31L177.69-19.31Q179.07-20.52 179.18-22.93L179.18-22.93Q179.18-26.32 176.65-27.41L176.65-27.41Q175.27-28.1 173.9-28.19 172.52-28.28 171.71-28.28L171.71-28.28 164.59-28.28 164.59-17.59ZM190.62-1.72L190.62-28.79Q190.62-29.89 191.36-30.57L191.36-30.57Q192.05-31.26 192.86-31.38L192.86-31.38Q194.47-31.38 195.39-30.11L195.39-30.11 212.05-5 212.05-29.54Q212.05-30.46 212.4-30.8L212.4-30.8Q213.03-31.38 213.63-31.38 214.24-31.38 214.58-31.26 214.93-31.15 215.16-30.92L215.16-30.92Q215.79-30.46 215.73-29.54L215.73-29.54 215.73-2.59Q215.73-0.86 214.07-0.17L214.07-0.17Q213.66 0 213.03 0L213.03 0Q211.65 0 210.62-1.26L210.62-1.26 194.35-26.03 194.35-1.72Q194.35-0.92 193.89-0.57L193.89-0.57Q193.2 0 192.46 0 191.71 0 191.16-0.43 190.62-0.86 190.62-1.72L190.62-1.72ZM254.35 0L237.45 0Q236.76 0 236.3-0.46L236.3-0.46Q235.5-1.15 235.5-1.9L235.5-1.9 235.5-29.43Q235.5-30.52 236.65-31.15L236.65-31.15Q236.99-31.26 237.34-31.38L237.34-31.38 253.72-31.38Q254.58-31.38 254.98-30.86 255.38-30.34 255.38-29.74 255.38-29.14 254.92-28.62 254.46-28.1 253.72-28.1L253.72-28.1 239.29-28.1 239.29-17.7 253.03-17.7Q253.89-17.7 254.29-17.21 254.69-16.72 254.69-16.09L254.69-16.09Q254.69-15.52 254.23-15.06 253.77-14.6 253.03-14.6L253.03-14.6 239.29-14.6 239.29-3.22 254.35-3.22Q255.15-3.22 255.55-2.7 255.96-2.18 255.96-1.55 255.96-0.92 255.53-0.46 255.09 0 254.35 0L254.35 0ZM277.45-27.93L288.02-2.41Q288.08-2.07 288.08-1.72 288.08-1.38 287.91-1.03 287.74-0.69 287.45-0.52L287.45-0.52Q286.87 0 286.18 0L286.18 0Q284.81 0 284.35-1.21L284.35-1.21 281.53-8.16 266.01-8.16 263.25-1.21Q262.85 0 261.64 0 260.44 0 259.81-1.03L259.81-1.03Q259.63-1.38 259.63-1.67 259.63-1.95 259.81-2.41L259.81-2.41 270.21-27.93Q271.36-30.8 272.85-31.21L272.85-31.21Q273.25-31.26 273.89-31.38L273.89-31.38Q275.03-31.38 275.61-30.86L275.61-30.86Q276.53-30.17 277.45-27.93L277.45-27.93ZM273.77-28.1L267.1-11.21 280.49-11.21 273.77-28.1ZM299.92-28.1L291.35-28.1Q290.49-28.1 290.09-28.62 289.69-29.14 289.69-29.74 289.69-30.34 290.09-30.86 290.49-31.38 291.35-31.38L291.35-31.38 312.33-31.38Q313.14-31.38 313.54-30.86 313.94-30.34 313.94-29.74 313.94-29.14 313.51-28.62 313.08-28.1 312.33-28.1L312.33-28.1 303.83-28.1 303.83-1.9Q303.83-0.57 302.68-0.11L302.68-0.11Q302.33 0 301.76 0 301.18 0 300.55-0.46 299.92-0.92 299.92-1.9L299.92-1.9 299.92-28.1ZM337.67 0L320.78 0Q320.09 0 319.63-0.46L319.63-0.46Q318.82-1.15 318.82-1.9L318.82-1.9 318.82-29.43Q318.82-30.52 319.97-31.15L319.97-31.15Q320.32-31.26 320.66-31.38L320.66-31.38 337.04-31.38Q337.9-31.38 338.31-30.86 338.71-30.34 338.71-29.74 338.71-29.14 338.25-28.62 337.79-28.1 337.04-28.1L337.04-28.1 322.62-28.1 322.62-17.7 336.35-17.7Q337.21-17.7 337.62-17.21 338.02-16.72 338.02-16.09L338.02-16.09Q338.02-15.52 337.56-15.06 337.1-14.6 336.35-14.6L336.35-14.6 322.62-14.6 322.62-3.22 337.67-3.22Q338.48-3.22 338.88-2.7 339.28-2.18 339.28-1.55 339.28-0.92 338.85-0.46 338.42 0 337.67 0L337.67 0ZM346.29-1.9L346.29-29.43Q346.29-30.57 347.56-31.21L347.56-31.21Q347.9-31.38 348.3-31.38L348.3-31.38 357.67-31.38Q365.26-31.38 367.9-27.36L367.9-27.36Q368.82-25.69 368.82-23.13 368.82-20.57 367.15-18.79 365.49-17.01 362.38-16.38L362.38-16.38 362.38-16.21Q365.37-15.69 366.64-13.97L366.64-13.97Q367.61-12.53 367.87-10.11 368.13-7.7 368.3-6.32L368.3-6.32Q368.48-4.31 368.65-1.9L368.65-1.9Q368.65-0.92 368.04-0.46 367.44 0 366.69 0 365.95 0 365.37-0.43 364.8-0.86 364.68-1.72L364.68-1.72Q364.45-4.37 364.28-6.41 364.11-8.45 363.88-9.86 363.65-11.26 363.25-12.18 362.84-13.1 362.15-13.62L362.15-13.62Q361-14.48 357.61-14.6L357.61-14.6 350.2-14.6 350.2-1.9Q350.2-0.52 348.99-0.11L348.99-0.11Q348.65 0 348.1 0 347.56 0 346.92-0.46 346.29-0.92 346.29-1.9L346.29-1.9ZM350.2-17.59L355.95-17.59Q361.41-17.59 363.3-19.31L363.3-19.31Q364.68-20.52 364.8-22.93L364.8-22.93Q364.8-26.32 362.27-27.41L362.27-27.41Q360.89-28.1 359.51-28.19 358.13-28.28 357.33-28.28L357.33-28.28 350.2-28.28 350.2-17.59ZM379.39-23.45L379.39-23.45Q379.39-22.24 380.2-21.18 381-20.11 382.27-19.43 383.53-18.74 385.14-18.22 386.75-17.7 388.53-17.13 390.31-16.55 392.04-15.86 393.76-15.17 395.02-14.14L395.02-14.14Q397.78-11.9 397.78-8.05L397.78-8.05Q397.78-6.21 396.92-4.57 396.06-2.93 394.51-1.84L394.51-1.84Q391.35 0.46 386.06 0.46L386.06 0.46Q381.06 0.46 377.27-2.07L377.27-2.07Q374.91-3.56 374.91-4.6L374.91-4.6Q374.91-5.52 375.83-6.09L375.83-6.09Q376.06-6.32 376.4-6.32 376.75-6.32 377.15-6.03 377.55-5.75 378.1-5.34 378.65-4.94 379.48-4.45 380.31-3.97 381.23-3.56L381.23-3.56Q383.53-2.64 385.71-2.7 387.9-2.76 389.22-3.05 390.54-3.33 391.58-4.02L391.58-4.02Q393.76-5.52 393.82-7.82L393.82-7.82Q393.82-10.69 391-12.24L391-12.24Q389.74-12.93 388.16-13.48 386.58-14.02 384.82-14.54 383.07-15.06 381.35-15.8 379.62-16.55 378.3-17.59L378.3-17.59Q375.48-19.83 375.48-23.33L375.48-23.33Q375.48-25.17 376.38-26.78 377.27-28.39 378.82-29.43L378.82-29.43Q381.81-31.55 386.29-31.61L386.29-31.61Q392.78-31.61 396.75-27.41L396.75-27.41Q396.98-27.07 396.98-26.64 396.98-26.21 396.95-25.92 396.92-25.63 396.63-25.34L396.63-25.34Q396.23-24.83 395.57-24.83 394.91-24.83 394.16-25.69L394.16-25.69Q392.27-27.07 391.12-27.47L391.12-27.47Q388.82-28.39 386.63-28.39L386.63-28.39Q383.82-28.39 381.81-27.24L381.81-27.24Q379.39-25.86 379.39-23.45Z" opacity="1" transform="matrix(1,0,0,1,0,0)" fill="#ed1703" class="undefined-text-0" data-fill-palette-color="primary" id="text-0"></path></svg></g></svg></g></svg></g></svg></g></svg></g></svg></g><g mask="url(&quot;#731f1ca6-cd16-4144-ab27-7485f805509c&quot;)"><g transform="matrix(2.7601278455799654, 0, 0, 2.7601278455799654, 135.4195831297913, 0.9999999999999858)"><svg xmlns="http://www.w3.org/2000/svg" xmlns:xlink="http://www.w3.org/1999/xlink" version="1.1" x="0" y="0" viewBox="27.413427575869548 5.581535271505549 45.172122711663405 88.83646472849446" enable-background="new 0 0 100 100" xml:space="preserve" height="88.83646472849446" width="45.172122711663405" class="icon-none" data-fill-palette-color="accent" id="none"><g fill="#ed1703" data-fill-palette-color="accent"><g fill="#ed1703" data-fill-palette-color="accent"><polygon points="61.377,35.396 51.643,35.396 51.643,94.418 59.02,94.418   " fill="#ed1703" data-fill-palette-color="accent"></polygon><polygon points="41.987,94.418 49.579,94.418 49.579,35.396 39.632,35.396   " fill="#ed1703" data-fill-palette-color="accent"></polygon><polygon points="37.57,35.396 27.449,35.396 31.886,94.418 39.925,94.418   " fill="#ed1703" data-fill-palette-color="accent"></polygon><polygon points="63.438,35.396 61.081,94.418 66.797,94.418 72.509,35.396   " fill="#ed1703" data-fill-palette-color="accent"></polygon></g><g fill="#ed1703" data-fill-palette-color="accent"><path d="M59.984 7.823c0 0 4.302-1.232 5.68 0.665 1.379 1.894-0.386 6.582-0.733 4.859 1.378 2.754 0.914 4.985-0.121 5.328-1.032 0.344-2.08 0.359-2.08 0.359s0.017 2.224-1.706 1.879c-1.723-0.343-2.675-1.052-2.328-2.43 0.348-1.377-2.325 1.915-4.22-1.529-1.894-3.446 1.205-4.48 1.205-4.48s-1.251-0.288-1.663-1.417c-0.367-1.009-0.275-2.938 1.834-3.027 3.285-0.144 3.303 1.193 3.303 1.193L59.984 7.823z" fill="#ed1703" data-fill-palette-color="accent"></path></g><g fill="#ed1703" data-fill-palette-color="accent"><path d="M61.318 23.663c0 0 2.188-3.939 4.517-3.57 2.331 0.369 4.415 4.963 2.938 3.984 2.942 0.979 4.202 2.897 3.708 3.877-0.493 0.981-1.227 1.738-1.227 1.738s1.594 1.572 0.123 2.553c-1.472 0.982-2.651 1.153-3.387-0.072-0.735-1.227-0.291 3.017-4.095 1.915-3.798-1.104-2.33-4.049-2.33-4.049s-1.096 0.686-2.194 0.176c-0.979-0.459-2.287-1.897-0.85-3.461 2.238-2.443 3.198-1.504 3.198-1.504L61.318 23.663z" fill="#ed1703" data-fill-palette-color="accent"></path></g><g fill="#ed1703" data-fill-palette-color="accent"><path d="M40.325 9.351c0 0 2.293-4.13 4.734-3.744 2.445 0.388 4.631 5.204 3.08 4.178 3.089 1.029 4.408 3.04 3.892 4.066-0.518 1.029-1.289 1.822-1.289 1.822s1.672 1.648 0.129 2.677c-1.543 1.029-2.782 1.21-3.551-0.077-0.771-1.287-0.307 3.166-4.293 2.006-3.982-1.155-2.442-4.242-2.442-4.242s-1.152 0.719-2.302 0.184c-1.027-0.481-2.396-1.988-0.892-3.629 2.349-2.561 3.355-1.576 3.355-1.576L40.325 9.351z" fill="#ed1703" data-fill-palette-color="accent"></path></g><g fill="#ed1703" data-fill-palette-color="accent"><path d="M54.818 31.985c-0.077 1.074-0.946 2.796-2.911 2.021-3.06-1.212-2.531-2.437-2.531-2.437l-1.331 0.938c0 0-4.433-0.629-4.919-2.921-0.485-2.295 3.04-5.863 2.656-4.145-0.137-3.082 1.197-4.931 2.282-4.821 1.086 0.108 2.048 0.52 2.048 0.52s0.894-2.036 2.326-1.019c1.434 1.016 2.013 2.05 1.135 3.168s3.024-0.809 3.232 3.121c0.1 1.909-0.066 3.575-0.567 4.242C55.74 31.318 54.818 31.985 54.818 31.985" fill="#ed1703" data-fill-palette-color="accent"></path></g><g fill="#ed1703" data-fill-palette-color="accent"><path d="M31.475 22.118c0 0 1.611-3.528 3.961-3.156 2.35 0.372 4.455 5.008 2.964 4.019 2.971 0.992 4.241 2.926 3.741 3.914-0.498 0.989-1.237 1.753-1.237 1.753s1.606 1.584 0.124 2.577c-1.482 0.989-2.678 1.162-3.417-0.075-0.743-1.237-0.297 3.047-4.13 1.931-3.835-1.113-2.353-4.083-2.353-4.083s-1.107 0.691-2.213 0.178c-0.99-0.463-2.309-1.914-0.858-3.494 2.258-2.464 3.228-1.517 3.228-1.517L31.475 22.118z" fill="#ed1703" data-fill-palette-color="accent"></path></g></g></svg></g></g></svg></g><defs><mask id="731f1ca6-cd16-4144-ab27-7485f805509c"><rect width="640" height="400" fill="white"></rect><rect width="348.05760000000004" height="37.961639485242586" fill="black" y="104.6191802573787" x="23.731199999999973" id="transform-me"></rect></mask></defs></svg><rect width="395.52" height="247.2" fill="none" stroke="none" visibility="hidden"></rect></g></svg></g></svg>