<svg xmlns="http://www.w3.org/2000/svg" version="1.1" xmlns:xlink="http://www.w3.org/1999/xlink" xmlns:svgjs="http://svgjs.dev/svgjs" width="1000" height="623" viewBox="0 0 1000 623"><g transform="matrix(1,0,0,1,-0.6060606060606233,0.2522267206477409)"><svg viewBox="0 0 396 247" data-background-color="#ffffff" preserveAspectRatio="xMidYMid meet" height="623" width="1000" xmlns="http://www.w3.org/2000/svg" xmlns:xlink="http://www.w3.org/1999/xlink"><g id="tight-bounds" transform="matrix(1,0,0,1,0.2400000000000091,-0.09999999999999432)"><svg viewBox="0 0 395.52 247.2" height="247.2" width="395.52"><g><svg></svg></g><g><svg viewBox="0 0 395.52 247.2" height="247.2" width="395.52"><g transform="matrix(1,0,0,1,39.55199999999999,110.74481886920212)"><svg viewBox="0 0 316.416 25.710362261595755" height="25.710362261595755" width="316.416"><g><svg viewBox="0 0 316.416 25.710362261595755" height="25.710362261595755" width="316.416"><g><svg viewBox="0 0 316.416 25.710362261595755" height="25.710362261595755" width="316.416"><g id="textblocktransform"><svg viewBox="0 0 316.416 25.710362261595755" height="25.710362261595755" width="316.416" id="textblock"><g><svg viewBox="0 0 316.416 25.710362261595755" height="25.710362261595755" width="316.416"><g transform="matrix(1,0,0,1,0,0)"><svg width="316.416" viewBox="3.7 -35.5 443.02000000000004 36" height="25.710362261595755" data-palette-color="#ed1703"><path d="M10.65 0L4.9 0Q4.4 0 4.05-0.35 3.7-0.7 3.7-1.25L3.7-1.25 3.7-33.75Q3.7-34.3 4.05-34.65 4.4-35 4.9-35L4.9-35 18.6-35Q22.65-35 25.65-33.75 28.65-32.5 30.3-29.98 31.95-27.45 31.95-23.65L31.95-23.65Q31.95-19.9 30.3-17.43 28.65-14.95 25.65-13.75 22.65-12.55 18.6-12.55L18.6-12.55 11.9-12.55 11.9-1.25Q11.9-0.7 11.55-0.35 11.2 0 10.65 0L10.65 0ZM11.8-28.75L11.8-18.75 18.35-18.75Q20.9-18.75 22.3-20 23.7-21.25 23.7-23.7L23.7-23.7Q23.7-25.95 22.43-27.35 21.15-28.75 18.35-28.75L18.35-28.75 11.8-28.75ZM51 0.5L51 0.5Q46.45 0.5 43.15-1 39.85-2.5 38-5.53 36.15-8.55 36-13.15L36-13.15Q35.95-15.3 35.95-17.43 35.95-19.55 36-21.75L36-21.75Q36.15-26.25 38.02-29.33 39.9-32.4 43.22-33.95 46.55-35.5 51-35.5L51-35.5Q55.4-35.5 58.72-33.95 62.05-32.4 63.95-29.33 65.85-26.25 66-21.75L66-21.75Q66.1-19.55 66.1-17.43 66.1-15.3 66-13.15L66-13.15Q65.85-8.55 63.97-5.53 62.1-2.5 58.8-1 55.5 0.5 51 0.5ZM51-6L51-6Q53.9-6 55.77-7.75 57.65-9.5 57.75-13.4L57.75-13.4Q57.85-15.6 57.85-17.53 57.85-19.45 57.75-21.6L57.75-21.6Q57.7-24.2 56.8-25.85 55.9-27.5 54.42-28.25 52.95-29 51-29L51-29Q49.1-29 47.6-28.25 46.1-27.5 45.2-25.85 44.3-24.2 44.2-21.6L44.2-21.6Q44.15-19.45 44.15-17.53 44.15-15.6 44.2-13.4L44.2-13.4Q44.35-9.5 46.2-7.75 48.05-6 51-6ZM79.2 0L73.45 0Q72.95 0 72.59-0.35 72.25-0.7 72.25-1.25L72.25-1.25 72.25-33.75Q72.25-34.3 72.59-34.65 72.95-35 73.45-35L73.45-35 87.15-35Q91.2-35 94.2-33.75 97.2-32.5 98.84-29.98 100.5-27.45 100.5-23.65L100.5-23.65Q100.5-19.9 98.84-17.43 97.2-14.95 94.2-13.75 91.2-12.55 87.15-12.55L87.15-12.55 80.45-12.55 80.45-1.25Q80.45-0.7 80.09-0.35 79.75 0 79.2 0L79.2 0ZM80.34-28.75L80.34-18.75 86.9-18.75Q89.45-18.75 90.84-20 92.25-21.25 92.25-23.7L92.25-23.7Q92.25-25.95 90.97-27.35 89.7-28.75 86.9-28.75L86.9-28.75 80.34-28.75ZM119.54 0.5L119.54 0.5Q114.89 0.5 111.59-1.07 108.29-2.65 106.49-5.68 104.69-8.7 104.49-13.05L104.49-13.05Q104.44-15.1 104.44-17.45 104.44-19.8 104.49-21.95L104.49-21.95Q104.69-26.25 106.52-29.28 108.34-32.3 111.64-33.9 114.94-35.5 119.54-35.5L119.54-35.5Q122.94-35.5 125.67-34.65 128.39-33.8 130.39-32.2 132.39-30.6 133.52-28.45 134.64-26.3 134.69-23.65L134.69-23.65Q134.74-23.2 134.42-22.9 134.09-22.6 133.64-22.6L133.64-22.6 127.89-22.6Q127.29-22.6 126.94-22.88 126.59-23.15 126.39-23.85L126.39-23.85Q125.64-26.85 123.89-27.93 122.14-29 119.54-29L119.54-29Q116.49-29 114.69-27.3 112.89-25.6 112.74-21.7L112.74-21.7Q112.59-17.6 112.74-13.3L112.74-13.3Q112.89-9.4 114.69-7.7 116.49-6 119.54-6L119.54-6Q122.14-6 123.92-7.1 125.69-8.2 126.39-11.15L126.39-11.15Q126.59-11.85 126.94-12.13 127.29-12.4 127.89-12.4L127.89-12.4 133.64-12.4Q134.09-12.4 134.42-12.1 134.74-11.8 134.69-11.35L134.69-11.35Q134.64-8.7 133.52-6.55 132.39-4.4 130.39-2.8 128.39-1.2 125.67-0.35 122.94 0.5 119.54 0.5ZM154.19 0.5L154.19 0.5Q149.64 0.5 146.34-1 143.04-2.5 141.19-5.53 139.34-8.55 139.19-13.15L139.19-13.15Q139.14-15.3 139.14-17.43 139.14-19.55 139.19-21.75L139.19-21.75Q139.34-26.25 141.22-29.33 143.09-32.4 146.41-33.95 149.74-35.5 154.19-35.5L154.19-35.5Q158.59-35.5 161.92-33.95 165.24-32.4 167.14-29.33 169.04-26.25 169.19-21.75L169.19-21.75Q169.29-19.55 169.29-17.43 169.29-15.3 169.19-13.15L169.19-13.15Q169.04-8.55 167.17-5.53 165.29-2.5 161.99-1 158.69 0.5 154.19 0.5ZM154.19-6L154.19-6Q157.09-6 158.97-7.75 160.84-9.5 160.94-13.4L160.94-13.4Q161.04-15.6 161.04-17.53 161.04-19.45 160.94-21.6L160.94-21.6Q160.89-24.2 159.99-25.85 159.09-27.5 157.62-28.25 156.14-29 154.19-29L154.19-29Q152.29-29 150.79-28.25 149.29-27.5 148.39-25.85 147.49-24.2 147.39-21.6L147.39-21.6Q147.34-19.45 147.34-17.53 147.34-15.6 147.39-13.4L147.39-13.4Q147.54-9.5 149.39-7.75 151.24-6 154.19-6ZM182.14 0L176.64 0Q176.14 0 175.79-0.35 175.44-0.7 175.44-1.25L175.44-1.25 175.44-33.75Q175.44-34.3 175.79-34.65 176.14-35 176.64-35L176.64-35 189.94-35Q196.19-35 199.79-32.13 203.39-29.25 203.39-23.85L203.39-23.85Q203.39-20.2 201.64-17.75 199.89-15.3 196.94-14.1L196.94-14.1 204.04-1.6Q204.19-1.3 204.19-1.05L204.19-1.05Q204.19-0.65 203.86-0.33 203.54 0 203.14 0L203.14 0 197.54 0Q196.64 0 196.19-0.48 195.74-0.95 195.54-1.35L195.54-1.35 189.44-12.8 183.39-12.8 183.39-1.25Q183.39-0.7 183.04-0.35 182.69 0 182.14 0L182.14 0ZM183.39-28.75L183.39-19.15 189.84-19.15Q192.54-19.15 193.86-20.4 195.19-21.65 195.19-23.9L195.19-23.9Q195.19-26.15 193.89-27.45 192.59-28.75 189.84-28.75L189.84-28.75 183.39-28.75ZM215.89 0L210.74 0Q210.24 0 209.89-0.35 209.53-0.7 209.53-1.25L209.53-1.25 209.53-33.75Q209.53-34.3 209.89-34.65 210.24-35 210.74-35L210.74-35 215.34-35Q216.09-35 216.44-34.65 216.78-34.3 216.89-34.1L216.89-34.1 230.19-13.3 230.19-33.75Q230.19-34.3 230.54-34.65 230.89-35 231.44-35L231.44-35 236.54-35Q237.09-35 237.44-34.65 237.79-34.3 237.79-33.75L237.79-33.75 237.79-1.25Q237.79-0.75 237.44-0.38 237.09 0 236.54 0L236.54 0 231.94 0Q231.19 0 230.84-0.38 230.49-0.75 230.39-0.9L230.39-0.9 217.14-21.05 217.14-1.25Q217.14-0.7 216.78-0.35 216.44 0 215.89 0L215.89 0ZM280.53 0L257.43 0Q256.93 0 256.58-0.35 256.23-0.7 256.23-1.25L256.23-1.25 256.23-33.75Q256.23-34.3 256.58-34.65 256.93-35 257.43-35L257.43-35 280.13-35Q280.68-35 281.03-34.65 281.38-34.3 281.38-33.75L281.38-33.75 281.38-29.75Q281.38-29.2 281.03-28.85 280.68-28.5 280.13-28.5L280.13-28.5 263.93-28.5 263.93-20.7 279.03-20.7Q279.58-20.7 279.93-20.35 280.28-20 280.28-19.45L280.28-19.45 280.28-15.75Q280.28-15.25 279.93-14.88 279.58-14.5 279.03-14.5L279.03-14.5 263.93-14.5 263.93-6.5 280.53-6.5Q281.08-6.5 281.43-6.15 281.78-5.8 281.78-5.25L281.78-5.25 281.78-1.25Q281.78-0.7 281.43-0.35 281.08 0 280.53 0L280.53 0ZM290.98 0L285.73 0Q285.28 0 284.98-0.33 284.68-0.65 284.68-1.05L284.68-1.05Q284.68-1.3 284.73-1.5L284.73-1.5 296.63-33.65Q296.78-34.2 297.23-34.6 297.68-35 298.48-35L298.48-35 304.88-35Q305.68-35 306.13-34.6 306.58-34.2 306.78-33.65L306.78-33.65 318.63-1.5Q318.73-1.3 318.73-1.05L318.73-1.05Q318.73-0.65 318.4-0.33 318.08 0 317.63 0L317.63 0 312.38 0Q311.68 0 311.33-0.35 310.98-0.7 310.88-1L310.88-1 308.73-6.6 294.63-6.6 292.53-1Q292.38-0.7 292.05-0.35 291.73 0 290.98 0L290.98 0ZM301.68-27.4L296.53-13.05 306.83-13.05 301.68-27.4ZM337.48 0L331.93 0Q331.38 0 331.03-0.35 330.68-0.7 330.68-1.25L330.68-1.25 330.68-28 321.58-28Q321.08-28 320.73-28.35 320.38-28.7 320.38-29.25L320.38-29.25 320.38-33.75Q320.38-34.3 320.73-34.65 321.08-35 321.58-35L321.58-35 347.78-35Q348.33-35 348.68-34.65 349.03-34.3 349.03-33.75L349.03-33.75 349.03-29.25Q349.03-28.7 348.68-28.35 348.33-28 347.78-28L347.78-28 338.73-28 338.73-1.25Q338.73-0.7 338.38-0.35 338.03 0 337.48 0L337.48 0ZM378.12 0L355.02 0Q354.52 0 354.17-0.35 353.82-0.7 353.82-1.25L353.82-1.25 353.82-33.75Q353.82-34.3 354.17-34.65 354.52-35 355.02-35L355.02-35 377.72-35Q378.27-35 378.62-34.65 378.97-34.3 378.97-33.75L378.97-33.75 378.97-29.75Q378.97-29.2 378.62-28.85 378.27-28.5 377.72-28.5L377.72-28.5 361.52-28.5 361.52-20.7 376.62-20.7Q377.17-20.7 377.52-20.35 377.87-20 377.87-19.45L377.87-19.45 377.87-15.75Q377.87-15.25 377.52-14.88 377.17-14.5 376.62-14.5L376.62-14.5 361.52-14.5 361.52-6.5 378.12-6.5Q378.67-6.5 379.02-6.15 379.37-5.8 379.37-5.25L379.37-5.25 379.37-1.25Q379.37-0.7 379.02-0.35 378.67 0 378.12 0L378.12 0ZM392.07 0L386.57 0Q386.07 0 385.72-0.35 385.37-0.7 385.37-1.25L385.37-1.25 385.37-33.75Q385.37-34.3 385.72-34.65 386.07-35 386.57-35L386.57-35 399.87-35Q406.12-35 409.72-32.13 413.32-29.25 413.32-23.85L413.32-23.85Q413.32-20.2 411.57-17.75 409.82-15.3 406.87-14.1L406.87-14.1 413.97-1.6Q414.12-1.3 414.12-1.05L414.12-1.05Q414.12-0.65 413.8-0.33 413.47 0 413.07 0L413.07 0 407.47 0Q406.57 0 406.12-0.48 405.67-0.95 405.47-1.35L405.47-1.35 399.37-12.8 393.32-12.8 393.32-1.25Q393.32-0.7 392.97-0.35 392.62 0 392.07 0L392.07 0ZM393.32-28.75L393.32-19.15 399.77-19.15Q402.47-19.15 403.8-20.4 405.12-21.65 405.12-23.9L405.12-23.9Q405.12-26.15 403.82-27.45 402.52-28.75 399.77-28.75L399.77-28.75 393.32-28.75ZM432.07 0.5L432.07 0.5Q427.27 0.5 424.04-0.9 420.82-2.3 419.17-4.55 417.52-6.8 417.42-9.35L417.42-9.35Q417.42-9.8 417.72-10.1 418.02-10.4 418.47-10.4L418.47-10.4 423.87-10.4Q424.52-10.4 424.87-10.15 425.22-9.9 425.52-9.5L425.52-9.5Q425.87-8.6 426.64-7.8 427.42-7 428.74-6.5 430.07-6 432.07-6L432.07-6Q435.32-6 436.94-7.05 438.57-8.1 438.57-9.9L438.57-9.9Q438.57-11.15 437.69-11.95 436.82-12.75 434.94-13.4 433.07-14.05 429.97-14.75L429.97-14.75Q426.22-15.6 423.59-16.88 420.97-18.15 419.64-20.18 418.32-22.2 418.32-25.2L418.32-25.2Q418.32-28.2 419.97-30.53 421.62-32.85 424.62-34.18 427.62-35.5 431.77-35.5L431.77-35.5Q435.12-35.5 437.69-34.6 440.27-33.7 441.99-32.25 443.72-30.8 444.62-29.15 445.52-27.5 445.57-25.95L445.57-25.95Q445.57-25.5 445.29-25.18 445.02-24.85 444.52-24.85L444.52-24.85 438.92-24.85Q438.42-24.85 438.02-25.05 437.62-25.25 437.32-25.75L437.32-25.75Q437.07-27.1 435.59-28.05 434.12-29 431.77-29L431.77-29Q429.32-29 427.89-28.13 426.47-27.25 426.47-25.4L426.47-25.4Q426.47-24.2 427.22-23.38 427.97-22.55 429.67-21.93 431.37-21.3 434.27-20.6L434.27-20.6Q438.62-19.7 441.37-18.43 444.12-17.15 445.42-15.18 446.72-13.2 446.72-10.2L446.72-10.2Q446.72-6.85 444.87-4.45 443.02-2.05 439.72-0.78 436.42 0.5 432.07 0.5Z" opacity="1" transform="matrix(1,0,0,1,0,0)" fill="#ed1703" class="undefined-text-0" data-fill-palette-color="primary" id="text-0"></path></svg></g></svg></g></svg></g></svg></g></svg></g></svg></g><g mask="url(&quot;#d8cc1115-052e-4eff-9c65-382f46eb73aa&quot;)"><g transform="matrix(2.7601278455799654, 0, 0, 2.7601278455799654, 135.4195831297913, 0.9999999999999858)"><svg xmlns="http://www.w3.org/2000/svg" xmlns:xlink="http://www.w3.org/1999/xlink" version="1.1" x="0" y="0" viewBox="27.413427575869548 5.581535271505549 45.172122711663405 88.83646472849446" enable-background="new 0 0 100 100" xml:space="preserve" height="88.83646472849446" width="45.172122711663405" class="icon-none" data-fill-palette-color="accent" id="none"><g fill="#ed1703" data-fill-palette-color="accent"><g fill="#ed1703" data-fill-palette-color="accent"><polygon points="61.377,35.396 51.643,35.396 51.643,94.418 59.02,94.418   " fill="#ed1703" data-fill-palette-color="accent"></polygon><polygon points="41.987,94.418 49.579,94.418 49.579,35.396 39.632,35.396   " fill="#ed1703" data-fill-palette-color="accent"></polygon><polygon points="37.57,35.396 27.449,35.396 31.886,94.418 39.925,94.418   " fill="#ed1703" data-fill-palette-color="accent"></polygon><polygon points="63.438,35.396 61.081,94.418 66.797,94.418 72.509,35.396   " fill="#ed1703" data-fill-palette-color="accent"></polygon></g><g fill="#ed1703" data-fill-palette-color="accent"><path d="M59.984 7.823c0 0 4.302-1.232 5.68 0.665 1.379 1.894-0.386 6.582-0.733 4.859 1.378 2.754 0.914 4.985-0.121 5.328-1.032 0.344-2.08 0.359-2.08 0.359s0.017 2.224-1.706 1.879c-1.723-0.343-2.675-1.052-2.328-2.43 0.348-1.377-2.325 1.915-4.22-1.529-1.894-3.446 1.205-4.48 1.205-4.48s-1.251-0.288-1.663-1.417c-0.367-1.009-0.275-2.938 1.834-3.027 3.285-0.144 3.303 1.193 3.303 1.193L59.984 7.823z" fill="#ed1703" data-fill-palette-color="accent"></path></g><g fill="#ed1703" data-fill-palette-color="accent"><path d="M61.318 23.663c0 0 2.188-3.939 4.517-3.57 2.331 0.369 4.415 4.963 2.938 3.984 2.942 0.979 4.202 2.897 3.708 3.877-0.493 0.981-1.227 1.738-1.227 1.738s1.594 1.572 0.123 2.553c-1.472 0.982-2.651 1.153-3.387-0.072-0.735-1.227-0.291 3.017-4.095 1.915-3.798-1.104-2.33-4.049-2.33-4.049s-1.096 0.686-2.194 0.176c-0.979-0.459-2.287-1.897-0.85-3.461 2.238-2.443 3.198-1.504 3.198-1.504L61.318 23.663z" fill="#ed1703" data-fill-palette-color="accent"></path></g><g fill="#ed1703" data-fill-palette-color="accent"><path d="M40.325 9.351c0 0 2.293-4.13 4.734-3.744 2.445 0.388 4.631 5.204 3.08 4.178 3.089 1.029 4.408 3.04 3.892 4.066-0.518 1.029-1.289 1.822-1.289 1.822s1.672 1.648 0.129 2.677c-1.543 1.029-2.782 1.21-3.551-0.077-0.771-1.287-0.307 3.166-4.293 2.006-3.982-1.155-2.442-4.242-2.442-4.242s-1.152 0.719-2.302 0.184c-1.027-0.481-2.396-1.988-0.892-3.629 2.349-2.561 3.355-1.576 3.355-1.576L40.325 9.351z" fill="#ed1703" data-fill-palette-color="accent"></path></g><g fill="#ed1703" data-fill-palette-color="accent"><path d="M54.818 31.985c-0.077 1.074-0.946 2.796-2.911 2.021-3.06-1.212-2.531-2.437-2.531-2.437l-1.331 0.938c0 0-4.433-0.629-4.919-2.921-0.485-2.295 3.04-5.863 2.656-4.145-0.137-3.082 1.197-4.931 2.282-4.821 1.086 0.108 2.048 0.52 2.048 0.52s0.894-2.036 2.326-1.019c1.434 1.016 2.013 2.05 1.135 3.168s3.024-0.809 3.232 3.121c0.1 1.909-0.066 3.575-0.567 4.242C55.74 31.318 54.818 31.985 54.818 31.985" fill="#ed1703" data-fill-palette-color="accent"></path></g><g fill="#ed1703" data-fill-palette-color="accent"><path d="M31.475 22.118c0 0 1.611-3.528 3.961-3.156 2.35 0.372 4.455 5.008 2.964 4.019 2.971 0.992 4.241 2.926 3.741 3.914-0.498 0.989-1.237 1.753-1.237 1.753s1.606 1.584 0.124 2.577c-1.482 0.989-2.678 1.162-3.417-0.075-0.743-1.237-0.297 3.047-4.13 1.931-3.835-1.113-2.353-4.083-2.353-4.083s-1.107 0.691-2.213 0.178c-0.99-0.463-2.309-1.914-0.858-3.494 2.258-2.464 3.228-1.517 3.228-1.517L31.475 22.118z" fill="#ed1703" data-fill-palette-color="accent"></path></g></g></svg></g></g></svg></g><defs><mask id="d8cc1115-052e-4eff-9c65-382f46eb73aa"><rect width="640" height="400" fill="white"></rect><rect width="348.05760000000004" height="37.849561224132714" fill="black" y="104.67521938793364" x="23.731199999999973" id="transform-me"></rect></mask></defs></svg><rect width="395.52" height="247.2" fill="none" stroke="none" visibility="hidden"></rect></g></svg></g></svg>